# xmcd
#
# Track frame offsets: 
#        150
#        18509
#        37757
#        58724
#        82733
#        99863
#        118891
#        137335
#        155428
#        166517
#
# Disc length: 2534 seconds
#
# Revision: 0
# Processed by: cddbd v1.5.2PL0 Copyright (c) Steve Scherf et al.
# Submitted via: ExactAudioCopyFreeDBPlugin 1.0
#
DISCID=6509e40a
DTITLE=Andrew Winton - Glorybox Mechanics
DYEAR=2015
DGENRE=Blues
TTITLE0=Let It Go
TTITLE1=Me No Complain
TTITLE2=Right On Time
TTITLE3=What You Heard
TTITLE4=Socks and Sandals
TTITLE5=Can't Slow Down (Redux)
TTITLE6=Roland The Headless Thompson Gunner
TTITLE7=In My Father's House
TTITLE8=The Pink Palace
TTITLE9=Our Best
EXTD=
EXTT0=
EXTT1=
EXTT2=
EXTT3=
EXTT4=
EXTT5=
EXTT6=
EXTT7=
EXTT8=
EXTT9=
PLAYORDER=
